# xmcd
#
# Track frame offsets: 
#        150
#        17446
#        29918
#        46768
#        70991
#        85762
#        103646
#        128214
#        148000
#        161900
#        179537
#        193266
#        221686
#        235743
#        260078
#
# Disc length: 3787 seconds
#
# Revision: 0
# Processed by: cddbd v1.5.2PL0 Copyright (c) Steve Scherf et al.
# Submitted via: ExactAudioCopy v0.95b3
#
DISCID=df0ec90f
DTITLE=Jason Boland and The Stragglers - Live At Billy Bob's Texas
DYEAR=2002
DGENRE=Country
TTITLE0=Drinkin' Song
TTITLE1=Tennessee Whiskey
TTITLE2=Shot Full of Holes
TTITLE3=Proud Souls
TTITLE4=Pearl Snaps
TTITLE5=Mexico or Crazy
TTITLE6=Somewhere Down in Texas
TTITLE7=Telephone Romeo
TTITLE8=When I'm Stoned
TTITLE9=Falling with Style
TTITLE10=Ponies
TTITLE11=Mary
TTITLE12=Truckstop Diaries
TTITLE13=Song For You
TTITLE14=Big Shot Rich Man
EXTD=
EXTT0=
EXTT1=
EXTT2=
EXTT3=
EXTT4=
EXTT5=
EXTT6=
EXTT7=
EXTT8=
EXTT9=
EXTT10=
EXTT11=
EXTT12=
EXTT13=
EXTT14=
PLAYORDER=
